<?xml version="1.0" ?><svg enable-background="new 0 0 64 64" id="XMLID_2_" version="1.1" viewBox="0 0 64 64" xml:space="preserve" xmlns="http://www.w3.org/2000/svg" xmlns:xlink="http://www.w3.org/1999/xlink"><g id="flat-icon-213"><polygon fill="#EFEEEE" points="16.9235,8.884 16.9235,56.884 44.9235,56.884 56.9235,44.884 56.9235,8.884  "/><polygon fill="#ABABAB" points="44.9235,44.884 44.9235,56.884 56.9235,44.884  "/><polygon fill="#DEDEDD" points="32.9235,56.884 44.9235,56.884 44.9235,44.884  "/><path d="M8.9235,20.884v14h32v-14H8.9235z" fill="#448E47"/><path d="M16.9635,25.148c-0.148-0.286-0.418-0.428-0.81-0.428c-0.216,0-0.394,0.058-0.534,0.176   c-0.14,0.116-0.25,0.302-0.33,0.562s-0.136,0.6-0.168,1.022c-0.034,0.42-0.048,0.934-0.048,1.542c0,0.648,0.022,1.172,0.066,1.572   c0.042,0.4,0.112,0.708,0.204,0.93s0.208,0.37,0.348,0.444c0.14,0.076,0.302,0.116,0.486,0.116c0.152,0,0.294-0.026,0.426-0.078   s0.246-0.156,0.342-0.312c0.098-0.156,0.174-0.376,0.228-0.66c0.056-0.284,0.084-0.658,0.084-1.122h1.726   c0,0.462-0.036,0.904-0.108,1.32c-0.072,0.416-0.208,0.78-0.402,1.092c-0.198,0.31-0.472,0.554-0.828,0.73   c-0.356,0.176-0.818,0.266-1.386,0.266c-0.646,0-1.164-0.106-1.546-0.312c-0.384-0.208-0.678-0.508-0.882-0.9   s-0.336-0.86-0.396-1.404c-0.058-0.542-0.09-1.144-0.09-1.798c0-0.648,0.032-1.246,0.09-1.794c0.06-0.546,0.194-1.018,0.396-1.41   c0.206-0.39,0.498-0.698,0.882-0.918c0.382-0.218,0.9-0.33,1.546-0.33c0.618,0,1.102,0.1,1.458,0.3   c0.356,0.2,0.622,0.454,0.796,0.762s0.288,0.64,0.33,0.996c0.044,0.356,0.066,0.69,0.066,1.002h-1.726   C17.1835,25.884,17.1095,25.43,16.9635,25.148z" fill="#FFFFFF"/><path d="M22.5575,29.76c0,0.2,0.018,0.382,0.048,0.544c0.034,0.164,0.092,0.302,0.18,0.414   c0.088,0.114,0.208,0.202,0.356,0.266c0.146,0.062,0.334,0.096,0.556,0.096c0.266,0,0.502-0.086,0.714-0.258   c0.21-0.172,0.318-0.44,0.318-0.798c0-0.192-0.028-0.358-0.078-0.498c-0.052-0.14-0.138-0.266-0.258-0.376   c-0.122-0.114-0.28-0.214-0.474-0.306s-0.438-0.186-0.726-0.282c-0.382-0.128-0.714-0.27-0.996-0.422   c-0.28-0.15-0.514-0.328-0.702-0.534c-0.188-0.204-0.326-0.44-0.414-0.708c-0.088-0.27-0.132-0.578-0.132-0.932   c0-0.848,0.236-1.478,0.708-1.894c0.47-0.416,1.12-0.624,1.944-0.624c0.384,0,0.738,0.042,1.062,0.126s0.604,0.218,0.84,0.408   c0.236,0.188,0.42,0.428,0.552,0.718c0.13,0.292,0.198,0.642,0.198,1.05v0.24h-1.654c0-0.408-0.072-0.722-0.214-0.944   c-0.144-0.218-0.384-0.33-0.72-0.33c-0.192,0-0.352,0.03-0.48,0.084c-0.126,0.056-0.23,0.13-0.306,0.222s-0.13,0.202-0.158,0.322   c-0.03,0.12-0.042,0.244-0.042,0.372c0,0.266,0.056,0.486,0.168,0.666c0.112,0.182,0.352,0.348,0.72,0.498l1.332,0.576   c0.328,0.144,0.596,0.294,0.802,0.452c0.208,0.156,0.376,0.324,0.498,0.504c0.124,0.18,0.21,0.376,0.258,0.594   c0.048,0.214,0.072,0.456,0.072,0.718c0,0.904-0.262,1.562-0.786,1.974c-0.524,0.412-1.254,0.62-2.19,0.62   c-0.976,0-1.674-0.212-2.096-0.636c-0.42-0.424-0.628-1.032-0.628-1.824V29.51h1.728V29.76z" fill="#FFFFFF"/><path d="M31.0915,29.952h0.038l1.272-6.336h1.79l-1.968,8.568h-2.22l-1.966-8.568h1.848L31.0915,29.952z" fill="#FFFFFF"/></g></svg>