<?xml version="1.0" ?><svg enable-background="new 0 0 64 64" id="XMLID_1_" version="1.1" viewBox="0 0 64 64" xml:space="preserve" xmlns="http://www.w3.org/2000/svg" xmlns:xlink="http://www.w3.org/1999/xlink"><g id="flat-icon-161"><polygon fill="#EFEEEE" points="16.629,8 16.629,56 44.629,56 56.629,44 56.629,8  "/><polygon fill="#ABABAB" points="44.629,44 44.629,56 56.629,44  "/><polygon fill="#DEDEDD" points="32.629,56 44.629,56 44.629,44  "/><path d="M8.629,20v14h32V20H8.629z" fill="#61B565"/><path d="M14.777,22.732l1.104,2.772l1.092-2.772h1.884l-1.992,4.236l2.136,4.332h-1.944l-1.234-2.904L14.597,31.3   h-1.896l2.136-4.332l-1.968-4.236H14.777z" fill="#FFFFFF"/><path d="M20.873,22.732h1.728v7.152h3.058V31.3h-4.786V22.732z" fill="#FFFFFF"/><path d="M29.021,28.876c0,0.2,0.016,0.382,0.046,0.544c0.034,0.164,0.092,0.302,0.18,0.414   c0.088,0.114,0.208,0.202,0.356,0.266c0.146,0.062,0.334,0.096,0.556,0.096c0.266,0,0.502-0.086,0.714-0.258   c0.21-0.172,0.318-0.44,0.318-0.798c0-0.192-0.028-0.358-0.078-0.498c-0.052-0.14-0.138-0.266-0.258-0.376   c-0.122-0.114-0.28-0.214-0.474-0.306s-0.438-0.186-0.726-0.282c-0.382-0.128-0.714-0.27-0.996-0.422   c-0.28-0.15-0.514-0.328-0.702-0.534c-0.188-0.204-0.326-0.44-0.414-0.708c-0.088-0.27-0.132-0.578-0.132-0.932   c0-0.848,0.236-1.478,0.708-1.894c0.47-0.416,1.12-0.624,1.944-0.624c0.384,0,0.738,0.042,1.062,0.126s0.604,0.218,0.84,0.408   c0.236,0.188,0.42,0.428,0.552,0.718c0.13,0.292,0.198,0.642,0.198,1.05v0.24h-1.656c0-0.408-0.072-0.722-0.214-0.944   c-0.144-0.218-0.384-0.33-0.72-0.33c-0.192,0-0.352,0.03-0.48,0.084c-0.126,0.056-0.23,0.13-0.306,0.222s-0.126,0.198-0.154,0.318   c-0.03,0.12-0.042,0.244-0.042,0.372c0,0.266,0.056,0.486,0.168,0.666c0.112,0.182,0.352,0.348,0.72,0.498l1.332,0.576   c0.328,0.144,0.596,0.294,0.802,0.452c0.208,0.156,0.376,0.324,0.498,0.504c0.124,0.18,0.21,0.376,0.258,0.594   c0.048,0.214,0.072,0.456,0.072,0.718c0,0.904-0.262,1.562-0.786,1.974c-0.524,0.412-1.254,0.62-2.19,0.62   c-0.976,0-1.674-0.212-2.096-0.636c-0.42-0.424-0.628-1.032-0.628-1.824v-0.348h1.728L29.021,28.876z" fill="#FFFFFF"/></g></svg>