<?xml version="1.0" ?><svg enable-background="new 0 0 64 64" id="XMLID_2_" version="1.1" viewBox="0 0 64 64" xml:space="preserve" xmlns="http://www.w3.org/2000/svg" xmlns:xlink="http://www.w3.org/1999/xlink"><g id="flat-icon-197"><linearGradient gradientTransform="matrix(1 0 0 -1 -266 -6397.0347)" gradientUnits="userSpaceOnUse" id="SVGID_1_" x1="288.1471" x2="340.9935" y1="-6415.1841" y2="-6468.0303"><stop offset="0" style="stop-color:#EFEEEE"/><stop offset="1" style="stop-color:#DEDEDD"/></linearGradient><polygon fill="url(#SVGID_1_)" points="16.4805,8.4828 16.4805,56.4828 44.4805,56.4828 56.4805,44.4828 56.4805,8.4828  "/><polygon fill="#ABABAB" points="44.4805,44.4828 44.4805,56.4828 56.4805,44.4828  "/><polygon fill="#DEDEDD" points="32.4805,56.4828 44.4805,56.4828 44.4805,44.4828  "/><path d="M8.4805,20.4828v14h32v-14H8.4805z" fill="#F06F32"/><path d="M16.8845,23.2148l2.268,8.568h-1.798l-0.396-1.812h-2.28l-0.398,1.812h-1.8l2.268-8.568L16.8845,23.2148z    M16.6565,28.5548l-0.828-3.852h-0.024l-0.828,3.852L16.6565,28.5548z" fill="#FFFFFF"/><path d="M22.6205,23.1188v1.416h-1.656v-1.416H22.6205z M22.6205,25.3288v6.456h-1.656v-6.456H22.6205z" fill="#FFFFFF"/></g></svg>