<?xml version="1.0" ?><svg enable-background="new 0 0 64 64" id="XMLID_1_" version="1.1" viewBox="0 0 64 64" xml:space="preserve" xmlns="http://www.w3.org/2000/svg" xmlns:xlink="http://www.w3.org/1999/xlink"><g id="flat-icon-192"><linearGradient gradientTransform="matrix(1 0 0 -1 118 -6179.3999)" gradientUnits="userSpaceOnUse" id="SVGID_1_" x1="-95.6935" x2="-42.8471" y1="-6197.3667" y2="-6250.2129"><stop offset="0" style="stop-color:#EFEEEE"/><stop offset="1" style="stop-color:#DEDEDD"/></linearGradient><polygon fill="url(#SVGID_1_)" points="16.64,8.3 16.64,56.3 44.64,56.3 56.64,44.3 56.64,8.3  "/><polygon fill="#ABABAB" points="44.64,44.3 44.64,56.3 56.64,44.3  "/><polygon fill="#DEDEDD" points="32.64,56.3 44.64,56.3 44.64,44.3  "/><path d="M8.64,20.3v14h32v-14H8.64z" fill="#ED4D76"/><path d="M14.908,22.936v1.416h-1.654v-1.416H14.908z M14.908,25.146v6.456h-1.654v-6.456H14.908z" fill="#FFFFFF"/><path d="M20.92,28.902h0.026v-5.87h1.584V31.6h-1.97l-2.112-6h-0.024v6H16.84v-8.568h1.992L20.92,28.902z" fill="#FFFFFF"/><path d="M27.364,23.03c0.6,0,1.084,0.1,1.452,0.296c0.37,0.196,0.654,0.474,0.86,0.84   c0.204,0.364,0.342,0.8,0.414,1.314c0.07,0.512,0.108,1.084,0.108,1.714c0,0.752-0.046,1.406-0.138,1.962   c-0.092,0.554-0.25,1.014-0.472,1.374c-0.224,0.362-0.526,0.628-0.9,0.804c-0.376,0.176-0.852,0.264-1.428,0.264h-2.728V23.03   H27.364z M27.028,30.33c0.304,0,0.546-0.052,0.732-0.156c0.184-0.104,0.33-0.276,0.438-0.516s0.18-0.556,0.216-0.95   c0.036-0.39,0.052-0.878,0.052-1.462c0-0.488-0.016-0.916-0.046-1.286c-0.034-0.368-0.1-0.674-0.2-0.918s-0.248-0.428-0.444-0.55   c-0.198-0.124-0.458-0.188-0.788-0.188h-0.73v6.026L27.028,30.33z" fill="#FFFFFF"/><path d="M34.492,23.03c0.602,0,1.084,0.1,1.454,0.296c0.368,0.196,0.654,0.474,0.858,0.84   c0.206,0.364,0.342,0.8,0.414,1.314c0.072,0.512,0.108,1.084,0.108,1.714c0,0.752-0.044,1.406-0.136,1.962   c-0.092,0.554-0.25,1.014-0.474,1.374c-0.224,0.362-0.524,0.628-0.9,0.804c-0.376,0.176-0.852,0.264-1.428,0.264H31.66V23.03   H34.492z M34.156,30.33c0.304,0,0.548-0.052,0.732-0.156c0.184-0.104,0.33-0.276,0.438-0.516c0.11-0.24,0.182-0.556,0.216-0.95   c0.036-0.39,0.054-0.878,0.054-1.462c0-0.488-0.018-0.916-0.048-1.286c-0.032-0.368-0.098-0.674-0.198-0.918   c-0.102-0.244-0.248-0.428-0.446-0.55c-0.196-0.124-0.458-0.188-0.786-0.188h-0.732v6.026L34.156,30.33z" fill="#FFFFFF"/></g></svg>