<?xml version="1.0" ?><!DOCTYPE svg  PUBLIC '-//W3C//DTD SVG 1.1//EN'  'http://www.w3.org/Graphics/SVG/1.1/DTD/svg11.dtd'><svg baseProfile="full" height="52px" version="1.1" width="53px" xmlns="http://www.w3.org/2000/svg" xmlns:ev="http://www.w3.org/2001/xml-events" xmlns:xlink="http://www.w3.org/1999/xlink"><path d="M26.9960000000001,52 C12.6599999999999,52 0.99699999999984,40.336 0.99699999999984,26 C0.99699999999984,11.664 12.6599999999999,0 26.9960000000001,0 C41.3330000000001,0 52.9960000000001,11.664 52.9960000000001,26 C52.9960000000001,40.336 41.3330000000001,52 26.9960000000001,52 ZM26.9960000000001,2 C13.7629999999999,2 2.99699999999984,12.767 2.99699999999984,26 C2.99699999999984,39.233 13.7629999999999,50 26.9960000000001,50 C40.23,50 50.9960000000001,39.233 50.9960000000001,26 C50.9960000000001,12.767 40.23,2 26.9960000000001,2 ZM30.9960000000001,42 C30.9960000000001,42 22.9969999999998,42 22.9969999999998,42 C22.444,42 21.9969999999998,41.552 21.9969999999998,41 C21.9969999999998,41 21.9969999999998,37 21.9969999999998,37 C21.9969999999998,36.448 22.444,36 22.9969999999998,36 C22.9969999999998,36 23.9969999999998,36 23.9969999999998,36 C23.9969999999998,36 23.9969999999998,26 23.9969999999998,26 C23.9969999999998,26 22.9969999999998,26 22.9969999999998,26 C22.444,26 21.9969999999998,25.552 21.9969999999998,25 C21.9969999999998,25 21.9969999999998,22 21.9969999999998,22 C21.9969999999998,21.511 22.3499999999999,21.094 22.8319999999999,21.014 C22.8319999999999,21.014 28.8319999999999,20.014 28.8319999999999,20.014 C29.1210000000001,19.963 29.4180000000001,20.047 29.643,20.237 C29.8670000000002,20.427 29.9960000000001,20.706 29.9960000000001,21 C29.9960000000001,21 29.9960000000001,36 29.9960000000001,36 C29.9960000000001,36 30.9960000000001,36 30.9960000000001,36 C31.549,36 31.9969999999998,36.448 31.9969999999998,37 C31.9969999999998,37 31.9969999999998,41 31.9969999999998,41 C31.9969999999998,41.552 31.549,42 30.9960000000001,42 ZM29.9960000000001,38 C29.9960000000001,38 28.9969999999998,38 28.9969999999998,38 C28.444,38 27.9960000000001,37.552 27.9960000000001,37 C27.9960000000001,37 27.9960000000001,22.181 27.9960000000001,22.181 C27.9960000000001,22.181 23.9969999999998,22.847 23.9969999999998,22.847 C23.9969999999998,22.847 23.9969999999998,24 23.9969999999998,24 C23.9969999999998,24 24.9969999999998,24 24.9969999999998,24 C25.549,24 25.9969999999998,24.448 25.9969999999998,25 C25.9969999999998,25 25.9969999999998,37 25.9969999999998,37 C25.9969999999998,37.552 25.549,38 24.9969999999998,38 C24.9969999999998,38 23.9969999999998,38 23.9969999999998,38 C23.9969999999998,38 23.9969999999998,40 23.9969999999998,40 C23.9969999999998,40 29.9960000000001,40 29.9960000000001,40 C29.9960000000001,40 29.9960000000001,38 29.9960000000001,38 ZM26.9960000000001,18 C24.7910000000002,18 22.9969999999998,16.206 22.9969999999998,14 C22.9969999999998,11.794 24.7910000000002,10 26.9960000000001,10 C29.2020000000002,10 30.9960000000001,11.794 30.9960000000001,14 C30.9960000000001,16.206 29.2020000000002,18 26.9960000000001,18 ZM26.9960000000001,12 C25.8939999999998,12 24.9969999999998,12.897 24.9969999999998,14 C24.9969999999998,15.103 25.8939999999998,16 26.9960000000001,16 C28.0999999999999,16 28.9969999999998,15.103 28.9969999999998,14 C28.9969999999998,12.897 28.0999999999999,12 26.9960000000001,12 Z " fill="rgb( 80, 80, 112 )"/></svg>