<?xml version="1.0" encoding="UTF-8"?>
<svg xmlns="http://www.w3.org/2000/svg" xmlns:xlink="http://www.w3.org/1999/xlink" width="110px" height="110px" viewBox="0 0 110 110" version="1.1">
<g id="surface1">
<path style=" stroke:none;fill-rule:evenodd;fill:rgb(57.647059%,80.784314%,100%);fill-opacity:1;" d="M 88.066406 3.613281 L 19.578125 3.613281 C 18.71875 3.613281 18.019531 4.308594 18.019531 5.164062 C 18.019531 6.019531 18.71875 6.714844 19.578125 6.714844 L 88.066406 6.714844 C 88.925781 6.714844 89.625 6.019531 89.625 5.164062 C 89.625 4.308594 88.925781 3.613281 88.066406 3.613281 Z M 65.496094 8.261719 L 40.070312 8.261719 L 40.070312 15.75 L 65.496094 15.75 Z M 73.199219 62.707031 C 71.589844 62.707031 72.355469 62.722656 72.355469 62.722656 C 71.355469 62.910156 70.4375 63.535156 69.53125 64.820312 C 69.125 65.394531 66.9375 68.320312 66.9375 68.320312 L 57.453125 81.078125 C 57.453125 81.078125 54.101562 83.960938 50.191406 81.078125 L 39.710938 68.785156 C 39.710938 68.785156 37.523438 66.09375 37.117188 65.519531 C 36.210938 64.234375 35.207031 63.035156 34.058594 62.957031 L 33.890625 62.945312 C 24.792969 63.058594 20.902344 70.949219 20.902344 78.367188 L 20.875 78.367188 L 20.875 79.460938 C 20.875 91.957031 20.875 104.878906 20.875 104.878906 C 20.875 105.019531 20.875 105.09375 20.875 105.09375 L 87.046875 105.09375 C 87.046875 105.09375 87.046875 105.019531 87.046875 104.878906 C 87.046875 104.878906 87.046875 91.789062 87.046875 79.246094 L 87.046875 78.585938 L 87.035156 78.585938 C 86.773438 69.46875 80.882812 63.050781 73.199219 62.707031 Z M 73.199219 62.707031 "/>
<path style=" stroke:none;fill-rule:evenodd;fill:rgb(0%,53.72549%,100%);fill-opacity:1;" d="M 84.3125 34.207031 L 83.589844 37.882812 C 83.453125 38.65625 83.972656 39.390625 84.75 39.527344 C 85.523438 39.660156 86.265625 39.144531 86.402344 38.371094 L 87.125 34.695312 C 87.257812 33.921875 86.738281 33.1875 85.964844 33.050781 C 85.1875 32.917969 84.449219 33.433594 84.3125 34.207031 Z M 18.460938 8.78125 L 35.324219 8.78125 L 35.324219 19.109375 C 35.324219 19.820312 35.902344 20.398438 36.621094 20.398438 L 69.570312 20.398438 C 70.285156 20.398438 70.867188 19.820312 70.867188 19.109375 L 70.867188 8.78125 L 89.546875 8.78125 C 91.695312 8.78125 93.4375 7.046875 93.4375 4.90625 L 93.4375 3.875 C 93.4375 1.734375 91.695312 0 89.546875 0 L 18.460938 0 C 16.308594 0 14.566406 1.734375 14.566406 3.875 L 14.566406 4.90625 C 14.566406 7.046875 16.308594 8.78125 18.460938 8.78125 Z M 68.011719 17.558594 L 38.175781 17.558594 L 38.175781 8.78125 L 68.011719 8.78125 Z M 17.421875 4.132812 C 17.421875 3.417969 18.003906 2.839844 18.71875 2.839844 L 89.285156 2.839844 C 90.003906 2.839844 90.582031 3.417969 90.582031 4.132812 L 90.582031 4.648438 C 90.582031 5.359375 90.003906 5.9375 89.285156 5.9375 L 18.71875 5.9375 C 18.003906 5.9375 17.421875 5.359375 17.421875 4.648438 Z M 91.621094 30.210938 C 91.621094 28.5 90.226562 27.113281 88.507812 27.113281 C 86.789062 27.113281 85.394531 28.5 85.394531 30.210938 C 85.394531 31.921875 86.789062 33.308594 88.507812 33.308594 C 90.226562 33.308594 91.621094 31.921875 91.621094 30.210938 Z M 93.722656 37.804688 L 92.863281 34.191406 C 92.699219 33.429688 91.933594 32.945312 91.152344 33.105469 C 90.429688 33.253906 89.949219 33.902344 90.007812 34.59375 C 89.835938 34.003906 89.289062 33.566406 88.636719 33.566406 C 87.847656 33.566406 87.210938 34.203125 87.210938 34.988281 L 87.210938 38.585938 C 87.210938 39.371094 87.847656 40.007812 88.636719 40.007812 C 89.425781 40.007812 90.0625 39.371094 90.0625 38.585938 L 90.0625 34.988281 C 90.0625 34.953125 90.0625 34.917969 90.058594 34.882812 L 90.894531 38.386719 C 91.058594 39.148438 91.824219 39.632812 92.605469 39.472656 C 93.386719 39.308594 93.886719 38.5625 93.722656 37.804688 Z M 55.441406 34.085938 C 55.972656 34.085938 56.433594 33.800781 56.683594 33.378906 C 57.367188 32.699219 58.398438 31.976562 59.445312 31.976562 L 59.574219 31.976562 C 60.613281 31.976562 61.554688 32.394531 62.234375 33.0625 C 62.480469 33.480469 62.941406 33.757812 63.464844 33.757812 C 64.253906 33.757812 64.785156 33.125 64.890625 32.359375 C 64.890625 32.359375 64.964844 31.804688 64.558594 31.324219 C 63.371094 30.007812 61.636719 29.179688 59.703125 29.179688 L 59.488281 29.179688 C 57.542969 29.179688 55.535156 30.277344 54.339844 31.613281 C 53.929688 32.101562 54.007812 32.664062 54.007812 32.664062 C 54.113281 33.441406 54.648438 34.085938 55.441406 34.085938 Z M 89.546875 24.144531 L 89.546875 10.972656 C 89.546875 10.191406 88.90625 9.554688 88.117188 9.554688 C 87.332031 9.554688 86.691406 10.191406 86.691406 10.972656 L 86.691406 24.144531 C 86.691406 24.925781 87.332031 25.5625 88.117188 25.5625 C 88.90625 25.5625 89.546875 24.925781 89.546875 24.144531 Z M 72.242188 56.554688 L 71.722656 56.550781 C 69.882812 56.597656 68.648438 57.597656 67.570312 59.132812 C 67.09375 59.8125 65.238281 62.230469 65.238281 62.230469 L 55.121094 75.398438 C 55.121094 75.398438 53.421875 77.117188 51.746094 75.398438 L 41.628906 62.488281 C 41.628906 62.488281 39.773438 60.074219 39.292969 59.390625 C 38.214844 57.855469 36.980469 56.855469 35.144531 56.808594 L 34.625 56.8125 C 23.808594 56.949219 15.015625 65.414062 14.421875 76.058594 L 14.386719 76.058594 L 14.386719 77.367188 C 14.386719 92.28125 14.386719 109.742188 14.386719 109.742188 C 14.386719 109.910156 14.386719 110 14.386719 110 L 92.996094 110 C 92.996094 110 92.996094 109.910156 92.996094 109.742188 C 92.996094 109.742188 92.996094 92.078125 92.996094 77.109375 L 92.996094 76.316406 L 92.980469 76.316406 C 92.648438 65.429688 83.230469 56.691406 72.242188 56.554688 Z M 90.144531 77.683594 C 90.144531 91.570312 90.144531 106.921875 90.144531 106.921875 C 90.144531 107.074219 90.144531 107.160156 90.144531 107.160156 L 17.242188 107.160156 C 17.242188 107.160156 17.242188 107.074219 17.242188 106.921875 C 17.242188 106.921875 17.242188 91.757812 17.242188 77.921875 L 17.242188 76.710938 L 17.273438 76.710938 C 17.273438 68.496094 24.417969 59.761719 34.441406 59.636719 L 34.625 59.648438 C 35.890625 59.734375 36.996094 61.066406 37.996094 62.488281 C 38.441406 63.121094 40.851562 66.101562 40.851562 66.101562 L 50.707031 78.238281 C 53.609375 80.546875 56.417969 78.238281 56.417969 78.238281 L 66.273438 65.585938 C 66.273438 65.585938 68.683594 62.347656 69.128906 61.714844 C 70.128906 60.289062 71.140625 59.597656 72.242188 59.390625 C 72.242188 59.390625 71.398438 59.375 73.171875 59.375 C 81.636719 59.75 89.84375 66.859375 90.128906 76.953125 L 90.144531 76.953125 Z M 42.214844 34.085938 C 42.746094 34.085938 43.207031 33.800781 43.457031 33.378906 C 44.140625 32.699219 45.167969 31.976562 46.21875 31.976562 L 46.347656 31.976562 C 47.386719 31.976562 48.328125 32.394531 49.007812 33.0625 C 49.253906 33.480469 49.710938 33.757812 50.238281 33.757812 C 51.027344 33.757812 51.558594 33.125 51.664062 32.359375 C 51.664062 32.359375 51.738281 31.804688 51.332031 31.324219 C 50.144531 30.007812 48.410156 29.179688 46.476562 29.179688 L 46.265625 29.179688 C 44.316406 29.179688 42.308594 30.277344 41.113281 31.613281 C 40.703125 32.101562 40.78125 32.664062 40.78125 32.664062 C 40.886719 33.441406 41.421875 34.085938 42.214844 34.085938 Z M 48.441406 44.410156 C 47.648438 44.410156 47.113281 45.054688 47.007812 45.832031 C 47.007812 45.832031 46.929688 46.394531 47.339844 46.886719 C 48.535156 48.222656 50.800781 49.0625 52.746094 49.0625 L 52.960938 49.0625 C 54.890625 49.0625 56.886719 48.230469 58.074219 46.914062 C 58.480469 46.433594 58.40625 45.878906 58.40625 45.878906 C 58.300781 45.113281 57.765625 44.480469 56.980469 44.480469 C 56.453125 44.480469 55.996094 44.761719 55.75 45.175781 C 55.066406 45.84375 53.871094 46.261719 52.832031 46.261719 L 52.699219 46.261719 C 51.652344 46.261719 50.367188 45.796875 49.679688 45.117188 C 49.433594 44.695312 48.972656 44.410156 48.441406 44.410156 Z M 35.324219 41.316406 L 35.34375 41.316406 C 35.746094 50.792969 43.148438 58.355469 52.707031 58.355469 C 62.261719 58.355469 70.441406 50.792969 70.847656 41.316406 L 70.867188 41.316406 L 70.867188 22.980469 L 35.324219 22.980469 Z M 38.175781 25.820312 L 68.011719 25.820312 L 68.011719 41.210938 L 67.996094 41.210938 C 67.65625 49.167969 60.726562 55.515625 52.707031 55.515625 C 44.683594 55.515625 38.535156 49.167969 38.195312 41.210938 L 38.175781 41.210938 Z M 38.175781 25.820312 "/>
</g>
</svg>
