<?xml version="1.0" ?><svg enable-background="new 0 0 64 64" id="XMLID_2_" version="1.1" viewBox="0 0 64 64" xml:space="preserve" xmlns="http://www.w3.org/2000/svg" xmlns:xlink="http://www.w3.org/1999/xlink"><g id="flat-icon-179"><polygon fill="#EFEEEE" points="16.0937,8.126 16.0937,56.126 44.0937,56.126 56.0937,44.126 56.0937,8.126  "/><polygon fill="#ABABAB" points="44.0937,44.126 44.0937,56.126 56.0937,44.126  "/><polygon fill="#DEDEDD" points="32.0937,56.126 44.0937,56.126 44.0937,44.126  "/><path d="M8.0937,20.126v14h32v-14H8.0937z" fill="#CB5641"/><path d="M15.7177,22.858c0.44,0,0.808,0.074,1.11,0.222s0.542,0.342,0.726,0.582s0.316,0.514,0.396,0.822   c0.078,0.306,0.12,0.622,0.12,0.942c0,0.44-0.066,0.824-0.198,1.152c-0.132,0.328-0.316,0.596-0.552,0.802   c-0.236,0.208-0.522,0.366-0.858,0.468c-0.336,0.102-0.708,0.158-1.116,0.158h-0.924v3.42h-1.728v-8.568L15.7177,22.858z    M15.1897,26.738c0.344,0,0.624-0.106,0.834-0.314c0.212-0.208,0.318-0.532,0.318-0.972c0-0.432-0.092-0.76-0.276-0.984   c-0.184-0.222-0.492-0.336-0.924-0.336h-0.72v2.606H15.1897z" fill="#FFFFFF"/><path d="M23.0377,22.856c0.602,0,1.084,0.1,1.454,0.296c0.368,0.196,0.654,0.474,0.858,0.84   c0.206,0.364,0.342,0.8,0.414,1.314c0.072,0.512,0.108,1.084,0.108,1.714c0,0.752-0.044,1.406-0.136,1.962   c-0.092,0.554-0.25,1.014-0.474,1.374c-0.224,0.362-0.524,0.628-0.9,0.804s-0.852,0.264-1.428,0.264h-2.728v-8.568H23.0377z    M22.7017,30.156c0.304,0,0.548-0.052,0.732-0.156s0.33-0.276,0.438-0.516c0.11-0.24,0.182-0.556,0.216-0.95   c0.036-0.39,0.054-0.878,0.054-1.462c0-0.488-0.018-0.916-0.048-1.286c-0.032-0.368-0.098-0.674-0.198-0.918   c-0.102-0.244-0.248-0.428-0.446-0.55c-0.196-0.124-0.458-0.188-0.786-0.188h-0.73v6.026L22.7017,30.156z" fill="#FFFFFF"/><path d="M32.9977,22.858v1.416h-3.06v2.016h2.88v1.416h-2.88v3.72h-1.728v-8.568L32.9977,22.858z" fill="#FFFFFF"/></g></svg>