<?xml version="1.0" ?><svg enable-background="new 0 0 64 64" id="XMLID_2_" version="1.1" viewBox="0 0 64 64" xml:space="preserve" xmlns="http://www.w3.org/2000/svg" xmlns:xlink="http://www.w3.org/1999/xlink"><g id="flat-icon-177"><linearGradient gradientTransform="matrix(1 0 0 -1 214 -5777.748)" gradientUnits="userSpaceOnUse" id="SVGID_1_" x1="-191.8397" x2="-138.9935" y1="-5795.5405" y2="-5848.3867"><stop offset="0" style="stop-color:#EFEEEE"/><stop offset="1" style="stop-color:#DEDEDD"/></linearGradient><polygon fill="url(#SVGID_1_)" points="16.4937,8.126 16.4937,56.126 44.4937,56.126 56.4937,44.126 56.4937,8.126  "/><polygon fill="#ABABAB" points="44.4937,44.126 44.4937,56.126 56.4937,44.126  "/><polygon fill="#DEDEDD" points="32.4937,56.126 44.4937,56.126 44.4937,44.126  "/><path d="M8.4937,20.126v14h32v-14H8.4937z" fill="#CB5641"/><path d="M16.1177,22.858c0.44,0,0.808,0.074,1.11,0.222s0.542,0.342,0.726,0.582s0.316,0.514,0.396,0.822   c0.078,0.306,0.12,0.622,0.12,0.942c0,0.44-0.066,0.824-0.198,1.152c-0.132,0.328-0.316,0.596-0.552,0.802   c-0.236,0.208-0.522,0.366-0.858,0.468c-0.336,0.102-0.708,0.158-1.116,0.158h-0.924v3.42h-1.728v-8.568L16.1177,22.858z    M15.5897,26.738c0.344,0,0.624-0.106,0.834-0.314c0.212-0.208,0.318-0.532,0.318-0.972c0-0.432-0.092-0.76-0.276-0.984   c-0.184-0.222-0.492-0.336-0.924-0.336h-0.72v2.606H15.5897z" fill="#FFFFFF"/><path d="M24.6017,28.728h0.026v-5.87h1.584v8.568h-1.97l-2.112-6h-0.024v6h-1.584v-8.568h1.992L24.6017,28.728z" fill="#FFFFFF"/><path d="M32.3597,24.912c-0.036-0.168-0.094-0.322-0.174-0.462c-0.08-0.138-0.182-0.256-0.304-0.348   c-0.124-0.092-0.276-0.138-0.452-0.138c-0.416,0-0.714,0.232-0.9,0.698c-0.184,0.462-0.276,1.232-0.276,2.302   c0,0.514,0.016,0.976,0.048,1.392s0.09,0.77,0.174,1.062s0.204,0.516,0.36,0.672s0.358,0.234,0.606,0.234   c0.106,0,0.218-0.03,0.344-0.084c0.124-0.056,0.238-0.14,0.348-0.252c0.108-0.114,0.198-0.254,0.27-0.426   c0.072-0.172,0.108-0.376,0.108-0.608v-0.876h-1.138v-1.272h2.794v4.62h-1.274v-0.792h-0.024c-0.208,0.338-0.458,0.574-0.75,0.714   c-0.292,0.14-0.642,0.21-1.05,0.21c-0.528,0-0.958-0.094-1.292-0.278s-0.592-0.466-0.78-0.852s-0.314-0.858-0.376-1.422   c-0.064-0.564-0.098-1.218-0.098-1.962c0-0.718,0.046-1.352,0.138-1.894c0.092-0.544,0.25-0.998,0.474-1.364   c0.222-0.364,0.52-0.636,0.886-0.822c0.37-0.184,0.828-0.276,1.38-0.276c0.944,0,1.624,0.234,2.04,0.704   c0.416,0.466,0.624,1.136,0.624,2.01h-1.652C32.4137,25.244,32.3957,25.08,32.3597,24.912z" fill="#FFFFFF"/></g></svg>