<?xml version="1.0" ?><svg enable-background="new 0 0 64 64" id="XMLID_2_" version="1.1" viewBox="0 0 64 64" xml:space="preserve" xmlns="http://www.w3.org/2000/svg" xmlns:xlink="http://www.w3.org/1999/xlink"><g id="flat-icon-164"><polygon fill="#EFEEEE" points="16.5338,8.5571 16.5338,56.5571 44.5338,56.5571 56.5338,44.5571 56.5338,8.5571  "/><polygon fill="#ABABAB" points="44.5338,44.5571 44.5338,56.5571 56.5338,44.5571  "/><polygon fill="#DEDEDD" points="32.5338,56.5571 44.5338,56.5571 44.5338,44.5571  "/><path d="M8.5338,20.5571v14h32v-14H8.5338z" fill="#15498A"/><path d="M18.1498,24.7051h-1.872v7.152h-1.728v-7.152h-1.872v-1.416h5.472V24.7051z" fill="#FFFFFF"/><path d="M21.6438,23.2891l1.104,2.772l1.092-2.772h1.882l-1.99,4.236l2.134,4.332h-1.944l-1.236-2.904l-1.224,2.904   h-1.894l2.134-4.332l-1.966-4.236L21.6438,23.2891z" fill="#FFFFFF"/><path d="M32.7538,24.7051h-1.874v7.152h-1.726v-7.152h-1.872v-1.416h5.472V24.7051z" fill="#FFFFFF"/></g></svg>