<?xml version="1.0" ?><svg enable-background="new 0 0 64 64" id="XMLID_2_" version="1.1" viewBox="0 0 64 64" xml:space="preserve" xmlns="http://www.w3.org/2000/svg" xmlns:xlink="http://www.w3.org/1999/xlink"><g id="flat-icon-211"><polygon fill="#EFEEEE" points="16.3955,8.884 16.3955,56.884 44.3955,56.884 56.3955,44.884 56.3955,8.884  "/><polygon fill="#ABABAB" points="44.3955,44.884 44.3955,56.884 56.3955,44.884  "/><polygon fill="#DEDEDD" points="32.3955,56.884 44.3955,56.884 44.3955,44.884  "/><path d="M8.3955,20.884v14h32v-14H8.3955z" fill="#4E95D0"/><path d="M15.9115,23.616c0.602,0,1.084,0.098,1.454,0.294c0.368,0.196,0.654,0.474,0.858,0.84   c0.206,0.364,0.342,0.8,0.414,1.314c0.072,0.512,0.108,1.084,0.108,1.714c0,0.752-0.044,1.406-0.136,1.962   c-0.092,0.554-0.25,1.014-0.474,1.374c-0.224,0.362-0.524,0.628-0.9,0.804c-0.38,0.178-0.856,0.266-1.432,0.266h-2.724v-8.568   L15.9115,23.616z M15.5755,30.914c0.304,0,0.548-0.052,0.732-0.156s0.33-0.276,0.438-0.516c0.11-0.24,0.182-0.556,0.216-0.95   c0.036-0.39,0.054-0.878,0.054-1.462c0-0.488-0.018-0.916-0.048-1.286c-0.032-0.368-0.098-0.674-0.198-0.918   c-0.102-0.244-0.248-0.428-0.446-0.55c-0.196-0.124-0.458-0.188-0.786-0.188h-0.73v6.026L15.5755,30.914z" fill="#FFFFFF"/><path d="M20.9935,26.106c0.06-0.546,0.194-1.018,0.396-1.41c0.206-0.39,0.498-0.698,0.882-0.918   c0.382-0.218,0.9-0.33,1.546-0.33c0.648,0,1.164,0.112,1.548,0.33c0.382,0.22,0.678,0.528,0.88,0.918   c0.206,0.392,0.336,0.864,0.396,1.41c0.06,0.548,0.09,1.146,0.09,1.794c0,0.654-0.03,1.256-0.09,1.798   c-0.06,0.544-0.192,1.012-0.396,1.404s-0.498,0.692-0.88,0.9c-0.384,0.208-0.9,0.312-1.548,0.312c-0.646,0-1.164-0.106-1.546-0.312   c-0.384-0.208-0.678-0.508-0.882-0.9s-0.336-0.86-0.396-1.404c-0.058-0.542-0.09-1.144-0.09-1.798   C20.9035,27.254,20.9355,26.656,20.9935,26.106z M22.6755,29.37c0.028,0.404,0.084,0.732,0.168,0.984s0.204,0.436,0.36,0.552   s0.362,0.174,0.618,0.174s0.462-0.058,0.62-0.174c0.156-0.118,0.276-0.3,0.36-0.552s0.14-0.58,0.168-0.984s0.042-0.892,0.042-1.468   s-0.016-1.064-0.042-1.464s-0.084-0.728-0.168-0.984s-0.204-0.442-0.36-0.556c-0.156-0.118-0.364-0.176-0.62-0.176   s-0.46,0.058-0.618,0.176c-0.156,0.116-0.276,0.3-0.36,0.556s-0.14,0.584-0.168,0.984c-0.03,0.4-0.042,0.888-0.042,1.464   S22.6455,28.966,22.6755,29.37z" fill="#FFFFFF"/><path d="M32.3935,25.148c-0.148-0.286-0.418-0.428-0.81-0.428c-0.214,0-0.392,0.058-0.534,0.176   c-0.14,0.116-0.25,0.302-0.33,0.562s-0.136,0.6-0.168,1.022c-0.032,0.42-0.046,0.934-0.046,1.542c0,0.648,0.022,1.172,0.064,1.572   c0.044,0.4,0.114,0.708,0.206,0.93s0.208,0.37,0.348,0.444c0.14,0.076,0.302,0.116,0.486,0.116c0.152,0,0.292-0.026,0.426-0.078   c0.13-0.052,0.246-0.156,0.342-0.312c0.096-0.156,0.172-0.376,0.228-0.66c0.054-0.284,0.084-0.658,0.084-1.122h1.726   c0,0.462-0.036,0.904-0.108,1.32c-0.072,0.416-0.206,0.78-0.402,1.092c-0.196,0.31-0.47,0.554-0.828,0.73   c-0.356,0.176-0.816,0.266-1.384,0.266c-0.648,0-1.164-0.106-1.548-0.312c-0.382-0.208-0.678-0.508-0.88-0.9   c-0.206-0.392-0.336-0.86-0.396-1.404c-0.06-0.542-0.09-1.144-0.09-1.798c0-0.648,0.03-1.246,0.09-1.794   c0.06-0.546,0.192-1.018,0.396-1.41c0.204-0.39,0.498-0.698,0.88-0.918c0.384-0.218,0.9-0.33,1.548-0.33   c0.616,0,1.102,0.1,1.458,0.3c0.356,0.2,0.624,0.454,0.798,0.762c0.174,0.308,0.286,0.64,0.33,0.996   c0.042,0.356,0.066,0.69,0.066,1.002h-1.73C32.6155,25.884,32.5415,25.43,32.3935,25.148z" fill="#FFFFFF"/></g></svg>