<?xml version="1.0" ?><svg enable-background="new 0 0 64 64" id="XMLID_2_" version="1.1" viewBox="0 0 64 64" xml:space="preserve" xmlns="http://www.w3.org/2000/svg" xmlns:xlink="http://www.w3.org/1999/xlink"><g id="flat-icon-160"><polygon fill="#EFEEEE" points="16.564,8 16.564,56 44.564,56 56.564,44 56.564,8  "/><polygon fill="#ABABAB" points="44.564,44 44.564,56 56.564,44  "/><polygon fill="#DEDEDD" points="32.564,56 44.564,56 44.564,44  "/><path d="M8.564,20v14h32V20H8.564z" fill="#CB5641"/><path d="M14.712,22.732l1.104,2.772l1.092-2.772h1.884L16.8,26.968l2.136,4.332h-1.944l-1.234-2.904L14.532,31.3   h-1.896l2.136-4.332l-1.968-4.236H14.712z" fill="#FFFFFF"/><path d="M23.412,22.732l1.224,6.048h0.024l1.236-6.048h2.556V31.3h-1.584v-6.84h-0.024L25.32,31.3h-1.344   l-1.524-6.84h-0.024v6.84h-1.584v-8.568L23.412,22.732z" fill="#FFFFFF"/><path d="M30.886,22.732h1.73v7.152h3.058V31.3h-4.788V22.732z" fill="#FFFFFF"/></g></svg>